<?xml version="1.0" encoding="utf-8"?>
<!-- Generator: Adobe Illustrator 16.0.0, SVG Export Plug-In . SVG Version: 6.00 Build 0)  -->
<!DOCTYPE svg PUBLIC "-//W3C//DTD SVG 1.1//EN" "http://www.w3.org/Graphics/SVG/1.1/DTD/svg11.dtd">
<svg version="1.1" id="Layer_1" xmlns="http://www.w3.org/2000/svg" xmlns:xlink="http://www.w3.org/1999/xlink" x="0px" y="0px"
	 width="30px" height="30px" viewBox="0 0 30 30" enable-background="new 0 0 30 30" xml:space="preserve">
<symbol  id="check" viewBox="-9.334 -12.729 18.668 25.458">
	<text transform="matrix(1 0 0 -1 -9.3345 -7.9707)" fill="#F7F2F3" font-family="'ZapfDingbatsITCbyBT-Regular'" font-size="24"></text>
</symbol>
<g>
	<path fill="#F05B24" d="M27.861,25.837c0,1.1-0.9,2-2,2H4.202c-1.1,0-2-0.9-2-2V4.177c0-1.1,0.9-2,2-2h21.66c1.1,0,2,0.9,2,2
		V25.837z"/>
	<path fill="none" stroke="#F15B22" stroke-width="2" stroke-miterlimit="10" d="M27.861,25.837c0,1.1-0.9,2-2,2H4.202
		c-1.1,0-2-0.9-2-2V4.177c0-1.1,0.9-2,2-2h21.66c1.1,0,2,0.9,2,2V25.837z"/>
</g>
<use xlink:href="#check"  width="18.668" height="25.458" x="-9.334" y="-12.729" transform="matrix(1 0 0 -1 15.0317 14.334)" overflow="visible"/>
</svg>
